# xmcd
#
# Track frame offsets:
#	150
#	13686
#	32595
#	44702
#	59226
#	78486
#	94371
#	116934
#	136156
#	151801
#
# Disc length: 2186 seconds
#
# Revision: 1
# Processed by: cddbd v1.5.2PL0 Copyright (c) Steve Scherf et al.
# Submitted via: EasyCDDAExtractor 5.0.7
#
DISCID=8a08880a
DTITLE=Noel Miller - Think A Head
DYEAR=1995
DGENRE=Pop-Folk
TTITLE0=Leave a Message at the Tone
TTITLE1=I Confess
TTITLE2=I'm still Dreaming
TTITLE3=Throw your Love Away
TTITLE4=The one you Can't Ignore
TTITLE5=Cleared Away
TTITLE6=Talk Dirty Talk
TTITLE7=It'll be Alright
TTITLE8=Lifetime
TTITLE9=Where I need you to be
EXTD=
EXTT0=
EXTT1=
EXTT2=
EXTT3=
EXTT4=
EXTT5=
EXTT6=
EXTT7=
EXTT8=
EXTT9=
PLAYORDER=
